<svg width="29" height="26" viewBox="0 0 29 26" fill="none" xmlns="http://www.w3.org/2000/svg">
<path d="M3.27039 3H9.44406L11.434 7.52254L8.23727 9.45994C7.85475 9.69177 7.62498 10.0821 7.62498 10.5C7.62847 10.617 7.62498 10.5013 7.62498 10.5013L7.62499 10.5026L7.62499 10.5054L7.62504 10.5117L7.62524 10.5271C7.62544 10.5386 7.62579 10.5526 7.62637 10.569C7.62753 10.6018 7.62964 10.6441 7.6334 10.6955C7.64092 10.7981 7.65511 10.9368 7.68177 11.1065C7.73506 11.4456 7.83849 11.9101 8.03929 12.4578C8.44249 13.5574 9.23474 14.9812 10.7777 16.3839C12.3207 17.7866 13.8868 18.5068 15.0964 18.8734C15.6988 19.0559 16.2098 19.1499 16.5829 19.1984C16.7695 19.2226 16.9221 19.2355 17.035 19.2423C17.0914 19.2458 17.1381 19.2477 17.1741 19.2487C17.1921 19.2493 17.2075 19.2496 17.2202 19.2498L17.2372 19.25L17.2441 19.25L17.2472 19.25H17.2486C17.2486 19.25 17.4021 19.2423 17.25 19.25C17.7708 19.25 18.2469 18.9825 18.4798 18.559L19.4007 16.8848L25.5 17.8089V23.2087C22.5972 23.5904 14.7577 23.9665 8.59725 18.3661C2.43684 12.7657 2.8506 5.63887 3.27039 3ZM10.4762 11.1076L12.9594 9.60266C14.0414 8.94689 14.4703 7.69172 13.9873 6.59406L11.9974 2.07152C11.5797 1.12238 10.5686 0.5 9.44406 0.5H3.19855C1.94935 0.5 0.773478 1.28895 0.568404 2.52113C0.101853 5.32438 -0.533187 13.6012 6.65271 20.1339C13.8386 26.6665 22.9432 26.0892 26.0267 25.6651C27.3821 25.4786 28.25 24.4097 28.25 23.274V17.8089C28.25 16.5868 27.2781 15.5438 25.9521 15.3429L19.8528 14.4188C18.6619 14.2384 17.4809 14.7851 16.941 15.7667L16.4646 16.633C16.3148 16.5996 16.1476 16.5567 15.966 16.5016C15.1131 16.2432 13.9293 15.7134 12.7223 14.6161C11.5152 13.5188 10.9325 12.4426 10.6482 11.6672C10.5713 11.4577 10.516 11.2693 10.4762 11.1076Z" fill="#0D0D0D"/>
</svg>
