<svg width="182" height="182" viewBox="0 0 182 182" fill="none" xmlns="http://www.w3.org/2000/svg">
<path d="M177 91C177 138.496 138.496 177 91 177C43.5035 177 5 138.496 5 91C5 43.5035 43.5035 5 91 5C138.496 5 177 43.5035 177 91Z" stroke="url(#paint0_angular_104_65)" stroke-width="10"/>
<path d="M62.47 63.97C64.81 63.97 67.33 64.21 70.03 64.69C72.79 65.11 74.41 65.35 74.89 65.41L74.71 72.16C69.43 71.2 65.35 70.72 62.47 70.72C58.39 70.72 55.45 71.56 53.65 73.24C51.85 74.92 50.95 77.71 50.95 81.61V107.35C50.95 111.25 51.82 114.04 53.56 115.72C55.36 117.34 58.33 118.15 62.47 118.15C65.35 118.15 69.43 117.67 74.71 116.71L74.89 123.64C74.41 123.7 72.79 123.94 70.03 124.36C67.33 124.84 64.81 125.08 62.47 125.08C55.57 125.08 50.65 123.61 47.71 120.67C44.77 117.73 43.3 113.14 43.3 106.9V82.15C43.3 75.91 44.77 71.32 47.71 68.38C50.65 65.44 55.57 63.97 62.47 63.97Z" fill="black"/>
<path d="M142.145 65.05L124.415 124H114.335L97.1446 65.05H105.245L119.375 116.62L134.045 65.05H142.145Z" fill="#C4C4C4"/>
<defs>
<radialGradient id="paint0_angular_104_65" cx="0" cy="0" r="1" gradientUnits="userSpaceOnUse" gradientTransform="translate(91 91) rotate(90) scale(91)">
<stop offset="0.000401207"/>
<stop offset="0.253257"/>
<stop offset="0.499215"/>
<stop offset="0.500153" stop-color="#949494"/>
<stop offset="0.500253" stop-color="#C4C4C4"/>
<stop offset="0.74909" stop-color="#C4C4C4"/>
<stop offset="0.998442" stop-color="#C4C4C4"/>
</radialGradient>
</defs>
</svg>
