<svg width="30" height="26" viewBox="0 0 30 26" fill="none" xmlns="http://www.w3.org/2000/svg">
<path d="M6.55671e-08 3.08333C6.55671e-08 1.51853 1.34315 0.25 3 0.25H27C28.6569 0.25 30 1.51853 30 3.08333V18.6667C30 20.2315 28.6569 21.5 27 21.5H3C1.34315 21.5 6.55671e-08 20.2315 6.55671e-08 18.6667V3.08333ZM27 3.08333H3V18.6667H27V3.08333Z" fill="#0D0D0D"/>
<path d="M30 24.3333C30 25.1157 29.3284 25.75 28.5 25.75H1.5C0.671574 25.75 -3.62117e-08 25.1157 0 24.3333C3.62117e-08 23.5509 0.671574 22.9167 1.5 22.9167L28.5 22.9167C29.3284 22.9167 30 23.5509 30 24.3333Z" fill="#0D0D0D"/>
</svg>
