<svg width="29" height="32" viewBox="0 0 29 32" fill="none" xmlns="http://www.w3.org/2000/svg">
<path d="M14.5 0.166748C6.98337 0.166748 0.833374 5.86675 0.833374 12.8334C0.833374 21.3834 12.7917 31.0417 13.3042 31.5167C13.6459 31.6751 14.1584 31.8334 14.5 31.8334C14.8417 31.8334 15.3542 31.6751 15.6959 31.5167C16.2084 31.0417 28.1667 21.3834 28.1667 12.8334C28.1667 5.86675 22.0167 0.166748 14.5 0.166748ZM14.5 28.1918C10.9125 25.0251 4.25004 18.2168 4.25004 12.8334C4.25004 7.60842 8.86254 3.33342 14.5 3.33342C20.1375 3.33342 24.75 7.60842 24.75 12.8334C24.75 18.0584 18.0875 25.0251 14.5 28.1918ZM14.5 6.50008C10.7417 6.50008 7.66671 9.35008 7.66671 12.8334C7.66671 16.3167 10.7417 19.1667 14.5 19.1667C18.2584 19.1667 21.3334 16.3167 21.3334 12.8334C21.3334 9.35008 18.2584 6.50008 14.5 6.50008ZM14.5 16.0001C12.6209 16.0001 11.0834 14.5751 11.0834 12.8334C11.0834 11.0917 12.6209 9.66675 14.5 9.66675C16.3792 9.66675 17.9167 11.0917 17.9167 12.8334C17.9167 14.5751 16.3792 16.0001 14.5 16.0001Z" fill="#0D0D0D"/>
</svg>
