<svg width="82" height="78" viewBox="0 0 82 78" fill="none" xmlns="http://www.w3.org/2000/svg">
<ellipse cx="40.5079" cy="39" rx="40.4974" ry="38.9891" transform="rotate(0.0153903 40.5079 39)" fill="#8C2B2B"/>
<ellipse cx="40.284" cy="39.4316" rx="36.2463" ry="34.9607" transform="rotate(0.0153903 40.284 39.4316)" fill="black"/>
<rect x="17.618" y="14.967" width="4.62401" height="49.6356" transform="rotate(0.0153903 17.618 14.967)" fill="white"/>
<rect width="4.54275" height="30.5641" transform="matrix(0.719942 -0.694035 0.719569 0.694421 17.6111 40.7087)" fill="white"/>
<path d="M55.6752 2.80053L59.9786 4.87479L21.7753 41.7864L18.5064 38.6318L55.6752 2.80053Z" fill="white"/>
<rect x="4.0885" y="42.345" width="4.49624" height="18.0636" transform="rotate(-89.9846 4.0885 42.345)" fill="white"/>
<rect x="38.3519" y="13.3904" width="4.77317" height="51.5059" transform="rotate(0.0153903 38.3519 13.3904)" fill="#8C2B2B"/>
<rect width="4.54275" height="16.0755" transform="matrix(0.719569 0.694421 -0.719942 0.694035 49.9252 2.18213)" fill="#8C2B2B"/>
<rect x="40.7983" y="42.0742" width="4.49624" height="35.8358" transform="rotate(-89.9846 40.7983 42.0742)" fill="#8C2B2B"/>
<rect width="4.54275" height="18.4847" transform="matrix(0.719942 -0.694035 0.719569 0.694421 27.004 56.106)" fill="black"/>
</svg>
