<svg width="428" height="117" viewBox="0 0 428 117" fill="none" xmlns="http://www.w3.org/2000/svg">
<g filter="url(#filter0_b_104_64)">
<rect y="114.077" width="114.079" height="427.068" transform="rotate(-89.6253 0 114.077)" fill="#434343" fill-opacity="0.5"/>
</g>
<ellipse cx="70.3107" cy="56.6209" rx="43.4078" ry="43.2557" transform="rotate(0.0153903 70.3107 56.6209)" fill="#8C2B2B"/>
<path d="M145.677 14.2382L138.147 23.7482L146.457 33.8882L143.187 33.8882L135.507 24.2582L135.507 33.8882L132.957 33.8882L132.957 14.2382L135.507 14.2382L135.507 23.7182L142.827 14.2382L145.677 14.2382ZM168.008 14.2382L174.038 33.8882L171.278 33.8882L169.988 29.3282L162.758 29.3282L161.468 33.8882L158.858 33.8882L164.858 14.2382L168.008 14.2382ZM166.388 16.5782L163.388 27.0482L169.358 27.0482L166.388 16.5782ZM191.235 14.2382L191.235 33.8882L188.685 33.8882L188.685 14.2382L191.235 14.2382ZM212.666 13.8782C213.746 13.8782 215.156 14.0382 216.896 14.3582L216.836 16.6082C215.196 16.2882 213.806 16.1282 212.666 16.1282C211.506 16.1282 210.666 16.3582 210.146 16.8182C209.646 17.2782 209.396 17.9782 209.396 18.9182L209.396 19.6982C209.396 20.1982 209.456 20.5982 209.576 20.8982C209.716 21.1782 209.956 21.4282 210.296 21.6482C210.636 21.8482 211.146 22.0582 211.826 22.2782L214.616 23.2082C215.956 23.6682 216.896 24.2782 217.436 25.0382C217.996 25.7982 218.276 26.9082 218.276 28.3682L218.276 28.9382C218.276 30.7182 217.756 32.0482 216.716 32.9282C215.696 33.8082 214.016 34.2482 211.676 34.2482C210.536 34.2482 209.076 34.0482 207.296 33.6482L207.356 31.3382C209.016 31.7382 210.436 31.9382 211.616 31.9382C213.116 31.9382 214.176 31.7182 214.796 31.2782C215.416 30.8182 215.726 30.1082 215.726 29.1482L215.726 28.1582C215.726 27.4582 215.566 26.9282 215.246 26.5682C214.946 26.1882 214.406 25.8682 213.626 25.6082L210.536 24.5882C209.156 24.1282 208.196 23.5382 207.656 22.8182C207.116 22.0782 206.846 20.9682 206.846 19.4882L206.846 19.1582C206.846 17.4182 207.306 16.1082 208.226 15.2282C209.166 14.3282 210.646 13.8782 212.666 13.8782ZM243.924 14.2382L243.924 16.5482L236.124 16.5482L236.124 22.7582L243.324 22.7582L243.324 25.0382L236.124 25.0382L236.124 31.5782L243.924 31.5782L243.924 33.8882L233.574 33.8882L233.574 14.2382L243.924 14.2382ZM265.354 13.8782C267.714 13.8782 269.454 14.3382 270.574 15.2582C271.694 16.1782 272.254 17.4682 272.254 19.1282L272.254 19.8782C272.254 21.0382 271.934 22.0682 271.294 22.9682C270.654 23.8482 269.734 24.4682 268.534 24.8282L273.634 33.8882L270.784 33.8882L266.014 25.3682C265.854 25.3882 265.534 25.3982 265.054 25.3982C264.254 25.3982 263.464 25.3682 262.684 25.3082L262.684 33.8882L260.134 33.8882L260.134 13.9982C262.374 13.9182 264.114 13.8782 265.354 13.8782ZM265.294 16.0382C264.634 16.0382 263.764 16.0582 262.684 16.0982L262.684 23.1782C263.764 23.2782 264.664 23.3282 265.384 23.3282C268.264 23.3282 269.704 22.1582 269.704 19.8182L269.704 19.2182C269.704 18.1382 269.354 17.3382 268.654 16.8182C267.954 16.2982 266.834 16.0382 265.294 16.0382Z" fill="white"/>
<path d="M143.307 47.2382L143.307 49.5482L135.507 49.5482L135.507 55.7582L141.387 55.7582L141.387 58.0382L135.507 58.0382L135.507 66.8882L132.957 66.8882L132.957 47.2382L143.307 47.2382ZM163.976 46.8782C166.336 46.8782 168.076 47.3382 169.196 48.2582C170.316 49.1782 170.876 50.4682 170.876 52.1282L170.876 52.8782C170.876 54.0382 170.556 55.0682 169.916 55.9682C169.276 56.8482 168.356 57.4682 167.156 57.8282L172.256 66.8882L169.406 66.8882L164.636 58.3682C164.476 58.3882 164.156 58.3982 163.676 58.3982C162.876 58.3982 162.086 58.3682 161.306 58.3082L161.306 66.8882L158.756 66.8882L158.756 46.9982C160.996 46.9182 162.736 46.8782 163.976 46.8782ZM163.916 49.0382C163.256 49.0382 162.386 49.0582 161.306 49.0982L161.306 56.1782C162.386 56.2782 163.286 56.3282 164.006 56.3282C166.886 56.3282 168.326 55.1582 168.326 52.8182L168.326 52.2182C168.326 51.1382 167.976 50.3382 167.276 49.8182C166.576 49.2982 165.456 49.0382 163.916 49.0382ZM193.954 47.2382L199.984 66.8882L197.224 66.8882L195.934 62.3282L188.704 62.3282L187.414 66.8882L184.804 66.8882L190.804 47.2382L193.954 47.2382ZM192.334 49.5782L189.334 60.0482L195.304 60.0482L192.334 49.5782ZM223.631 66.8882L217.151 50.2982L217.151 66.8882L214.631 66.8882L214.631 47.2382L218.711 47.2382L225.071 63.8282L225.071 47.2382L227.591 47.2382L227.591 66.8882L223.631 66.8882ZM254.892 47.2382L254.892 49.2482L246.012 64.5782L254.892 64.5782L254.892 66.8882L243.042 66.8882L243.042 64.8782L251.922 49.5482L243.222 49.5482L243.222 47.2382L254.892 47.2382Z" fill="#8C2B2B"/>
<path d="M143.307 80.2382L143.307 82.5482L135.507 82.5482L135.507 88.7582L142.707 88.7582L142.707 91.0382L135.507 91.0382L135.507 97.5782L143.307 97.5782L143.307 99.8882L132.957 99.8882L132.957 80.2382L143.307 80.2382ZM168.517 99.8882L162.037 83.2982L162.037 99.8882L159.517 99.8882L159.517 80.2382L163.597 80.2382L169.957 96.8282L169.957 80.2382L172.477 80.2382L172.477 99.8882L168.517 99.8882ZM195.218 79.8782C195.958 79.8782 196.808 79.9482 197.768 80.0882C198.728 80.2082 199.608 80.3482 200.408 80.5082L200.348 82.7582C198.088 82.3182 196.378 82.0982 195.218 82.0982C193.838 82.0982 192.848 82.3782 192.248 82.9382C191.668 83.4782 191.378 84.3882 191.378 85.6682L191.378 94.3682C191.378 95.6482 191.668 96.5782 192.248 97.1582C192.848 97.7182 193.838 97.9982 195.218 97.9982C196.118 97.9982 197.288 97.8582 198.728 97.5782L198.728 90.9482L194.978 90.9482L194.978 88.5482L201.278 88.5482L201.278 99.1382C198.878 99.8782 196.858 100.248 195.218 100.248C192.918 100.248 191.278 99.7582 190.298 98.7782C189.318 97.7982 188.828 96.2682 188.828 94.1882L188.828 85.9382C188.828 83.8182 189.328 82.2782 190.328 81.3182C191.328 80.3582 192.958 79.8782 195.218 79.8782ZM220.169 80.2382L220.169 99.8882L217.619 99.8882L217.619 80.2382L220.169 80.2382ZM245.679 99.8882L239.199 83.2982L239.199 99.8882L236.679 99.8882L236.679 80.2382L240.759 80.2382L247.119 96.8282L247.119 80.2382L249.639 80.2382L249.639 99.8882L245.679 99.8882ZM276.49 80.2382L276.49 82.5482L268.69 82.5482L268.69 88.7582L275.89 88.7582L275.89 91.0382L268.69 91.0382L268.69 97.5782L276.49 97.5782L276.49 99.8882L266.14 99.8882L266.14 80.2382L276.49 80.2382ZM303.051 80.2382L303.051 82.5482L295.251 82.5482L295.251 88.7582L302.451 88.7582L302.451 91.0382L295.251 91.0382L295.251 97.5782L303.051 97.5782L303.051 99.8882L292.701 99.8882L292.701 80.2382L303.051 80.2382ZM324.481 79.8782C326.841 79.8782 328.581 80.3382 329.701 81.2582C330.821 82.1782 331.381 83.4682 331.381 85.1282L331.381 85.8782C331.381 87.0382 331.061 88.0682 330.421 88.9682C329.781 89.8482 328.861 90.4682 327.661 90.8282L332.761 99.8882L329.911 99.8882L325.141 91.3682C324.981 91.3882 324.661 91.3982 324.181 91.3982C323.381 91.3982 322.591 91.3682 321.811 91.3082L321.811 99.8882L319.261 99.8882L319.261 79.9982C321.501 79.9182 323.241 79.8782 324.481 79.8782ZM324.421 82.0382C323.761 82.0382 322.891 82.0582 321.811 82.0982L321.811 89.1782C322.891 89.2782 323.791 89.3282 324.511 89.3282C327.391 89.3282 328.831 88.1582 328.831 85.8182L328.831 85.2182C328.831 84.1382 328.481 83.3382 327.781 82.8182C327.081 82.2982 325.961 82.0382 324.421 82.0382ZM350.013 80.2382L350.013 99.8882L347.463 99.8882L347.463 80.2382L350.013 80.2382ZM375.523 99.8882L369.043 83.2982L369.043 99.8882L366.523 99.8882L366.523 80.2382L370.603 80.2382L376.963 96.8282L376.963 80.2382L379.483 80.2382L379.483 99.8882L375.523 99.8882ZM402.224 79.8782C402.964 79.8782 403.814 79.9482 404.774 80.0882C405.734 80.2082 406.614 80.3482 407.414 80.5082L407.354 82.7582C405.094 82.3182 403.384 82.0982 402.224 82.0982C400.844 82.0982 399.854 82.3782 399.254 82.9382C398.674 83.4782 398.384 84.3882 398.384 85.6682L398.384 94.3682C398.384 95.6482 398.674 96.5782 399.254 97.1582C399.854 97.7182 400.844 97.9982 402.224 97.9982C403.124 97.9982 404.294 97.8582 405.734 97.5782L405.734 90.9482L401.984 90.9482L401.984 88.5482L408.284 88.5482L408.284 99.1382C405.884 99.8782 403.864 100.248 402.224 100.248C399.924 100.248 398.284 99.7582 397.304 98.7782C396.324 97.7982 395.834 96.2682 395.834 94.1882L395.834 85.9382C395.834 83.8182 396.334 82.2782 397.334 81.3182C398.334 80.3582 399.964 79.8782 402.224 79.8782Z" fill="black"/>
<ellipse cx="70.0705" cy="57.1007" rx="38.8512" ry="38.7865" transform="rotate(0.0153903 70.0705 57.1007)" fill="black"/>
<rect x="45.776" y="29.959" width="4.95632" height="55.0673" transform="rotate(0.0153903 45.776 29.959)" fill="white"/>
<rect width="4.9522" height="33.3189" transform="matrix(0.707885 -0.706328 0.707506 0.706708 45.7682 58.5171)" fill="white"/>
<path d="M86.5688 16.4606L91.1815 18.7618L50.2322 59.7131L46.7285 56.2133L86.5688 16.4606Z" fill="white"/>
<rect x="31.274" y="60.333" width="4.98827" height="19.3617" transform="rotate(-89.9846 31.274 60.333)" fill="white"/>
<rect x="68.0001" y="28.2095" width="5.1162" height="57.1423" transform="rotate(0.0153903 68.0001 28.2095)" fill="#8C2B2B"/>
<rect width="4.9522" height="17.5245" transform="matrix(0.707506 0.706708 -0.707885 0.706328 80.4052 15.7744)" fill="#8C2B2B"/>
<rect x="70.622" y="60.0322" width="4.98827" height="38.4112" transform="rotate(-89.9846 70.622 60.0322)" fill="#8C2B2B"/>
<rect width="4.9522" height="20.1508" transform="matrix(0.707885 -0.706328 0.707506 0.706708 55.8363 75.5981)" fill="black"/>
<defs>
<filter id="filter0_b_104_64" x="-4" y="-4" width="435.805" height="124.87" filterUnits="userSpaceOnUse" color-interpolation-filters="sRGB">
<feFlood flood-opacity="0" result="BackgroundImageFix"/>
<feGaussianBlur in="BackgroundImage" stdDeviation="2"/>
<feComposite in2="SourceAlpha" operator="in" result="effect1_backgroundBlur_104_64"/>
<feBlend mode="normal" in="SourceGraphic" in2="effect1_backgroundBlur_104_64" result="shape"/>
</filter>
</defs>
</svg>
